<svg xmlns="http://www.w3.org/2000/svg" viewBox="0 0 64 64"><defs><linearGradient id="bg" x1="0" y1="0" x2="1" y2="1"><stop stop-color="#ecfff4"/><stop offset="1" stop-color="#dcf9e9"/></linearGradient><linearGradient id="leaf" x1="0" y1="0" x2="1" y2="1"><stop stop-color="#16b866"/><stop offset="1" stop-color="#078b4d"/></linearGradient></defs><rect width="64" height="64" rx="14" fill="url(#bg)"/><path d="M32 38V17" stroke="#159957" stroke-width="3.5" stroke-linecap="round"/><path d="M32 27c-9-2-14-8-14-15 8 0 14 4 14 12M32 22c1-8 6-13 13-15 1 8-3 14-13 18M32 35c-9 1-15-2-19-8 8-3 15-1 19 6M32 33c5-7 11-9 19-7-3 7-9 10-19 10" fill="url(#leaf)"/><path d="M32 28v12" stroke="#0d8f50" stroke-width="3.5" stroke-linecap="round"/><path d="M18 39h28l-3 12H21l-3-12Z" fill="#202a35"/><rect x="16" y="36" width="32" height="5" rx="2.5" fill="#17212b"/><rect x="20" y="52" width="24" height="3" rx="1.5" fill="#202a35"/></svg>
